<svg xmlns="http://www.w3.org/2000/svg" width="34" height="34" fill="none"><path fill="#BABABA" d="M29.4 18.667c-.367 0-.75-.117-1.117-.2a15.754 15.754 0 0 1-2.183-.65 3.333 3.333 0 0 0-4.133 1.666l-.367.75a20.3 20.3 0 0 1-4.433-3.333 20.3 20.3 0 0 1-3.334-4.433l.7-.467A3.333 3.333 0 0 0 16.2 7.867a17.233 17.233 0 0 1-.65-2.184c-.083-.366-.15-.75-.2-1.133a5 5 0 0 0-5-4.15h-5a5 5 0 0 0-5 5.683 31.667 31.667 0 0 0 27.533 27.434h.634a5 5 0 0 0 3.333-1.267 5 5 0 0 0 1.667-3.75v-5a5 5 0 0 0-4.117-4.833Zm.833 10a1.667 1.667 0 0 1-.566 1.25 1.751 1.751 0 0 1-1.367.416A28.333 28.333 0 0 1 3.783 5.7 1.817 1.817 0 0 1 4.2 4.333a1.667 1.667 0 0 1 1.25-.566h5a1.667 1.667 0 0 1 1.667 1.316c.066.456.15.906.25 1.35.192.879.448 1.742.766 2.584L10.8 10.1a1.666 1.666 0 0 0-.817 2.217A24.15 24.15 0 0 0 21.65 23.983c.406.167.86.167 1.267 0a1.665 1.665 0 0 0 .95-.866l1.033-2.334c.862.308 1.741.564 2.633.767.445.1.895.183 1.35.25a1.667 1.667 0 0 1 1.317 1.667l.033 5.2Z"/></svg>